<?xml version="1.0" encoding="UTF-8" standalone="no"?>
<!DOCTYPE svg PUBLIC "-//W3C//DTD SVG 1.1//EN" "http://www.w3.org/Graphics/SVG/1.1/DTD/svg11.dtd">
<svg width="100%" height="100%" viewBox="0 0 731 296" version="1.1" xmlns="http://www.w3.org/2000/svg" xmlns:xlink="http://www.w3.org/1999/xlink" xml:space="preserve" xmlns:serif="http://www.serif.com/" style="fill-rule:evenodd;clip-rule:evenodd;stroke-miterlimit:1.5;">
    <g id="Logo" transform="matrix(1.25818,0,0,0.647702,-152.239,-34.3282)">
        <rect x="121" y="53" width="581" height="457" style="fill:none;"/>
        <g id="Icon" transform="matrix(0.794802,0,0,1.39527,-82.558,-3.32787)">
            <g transform="matrix(0.808416,-0.894543,0.805882,0.891739,-110.772,368.421)">
                <path d="M501.183,162.536C501.183,145.429 487.338,131.541 470.285,131.541L347.861,131.541C330.808,131.541 316.964,145.429 316.964,162.536L316.964,284.765C316.964,301.872 330.808,315.76 347.861,315.76L470.285,315.76C487.338,315.76 501.183,301.872 501.183,284.765L501.183,162.536Z" style="fill:rgb(238,239,239);fill-opacity:0;"/>
                <clipPath id="_clip1">
                    <path d="M501.183,162.536C501.183,145.429 487.338,131.541 470.285,131.541L347.861,131.541C330.808,131.541 316.964,145.429 316.964,162.536L316.964,284.765C316.964,301.872 330.808,315.76 347.861,315.76L470.285,315.76C487.338,315.76 501.183,301.872 501.183,284.765L501.183,162.536Z"/>
                </clipPath>
                <g clip-path="url(#_clip1)">
                    <g transform="matrix(2.32414e-15,2.17403,-0.942519,-8.60327e-15,513.853,-121.394)">
                        <rect x="158.365" y="167.688" width="42.723" height="41.802" style="fill:rgb(127,208,149);"/>
                    </g>
                    <g transform="matrix(6.12598e-15,3.64732,-3.49214,-1.69136e-14,1137.8,-454.308)">
                        <rect x="158.365" y="167.688" width="42.723" height="41.802" style="fill:rgb(254,190,34);"/>
                    </g>
                    <g transform="matrix(9.36886e-16,0.877432,-2.57847,-2.86267e-16,895.957,140.013)">
                        <rect x="158.365" y="167.688" width="42.723" height="41.802" style="fill:rgb(29,178,77);"/>
                    </g>
                    <g transform="matrix(2.027e-16,0.881958,-0.942195,-1.98724e-16,660.004,139.253)">
                        <rect x="158.365" y="167.688" width="42.723" height="41.802" style="fill:rgb(42,131,251);"/>
                    </g>
                    <g transform="matrix(3.10862e-15,2.17069,-3.49214,-6.21725e-15,1048.55,-212.495)">
                        <rect x="158.365" y="167.688" width="42.723" height="41.802" style="fill:rgb(252,215,100);"/>
                    </g>
                </g>
            </g>
            <g transform="matrix(1,0,0,1.10654,0.17272,-37.0692)">
                <circle cx="401.5" cy="216.5" r="36.5" style="fill:white;stroke:rgb(249,53,38);stroke-width:0.8px;"/>
            </g>
            <g transform="matrix(1,0,0,1.10654,0,-34.4165)">
                <path d="M356.932,256.373C346.78,245.46 340.569,230.836 340.569,214.773C340.569,181.049 367.949,153.67 401.673,153.67C435.397,153.67 462.777,181.049 462.777,214.773C462.777,234.097 453.787,251.338 439.764,262.539L401.673,300.684L360.506,259.912C359.267,258.782 358.075,257.601 356.933,256.374L356.932,256.373L356.932,256.373ZM401.673,184.705C418.535,184.705 431.227,197.911 431.227,214.773C431.227,231.635 418.535,244.519 401.673,244.519C384.811,244.519 372.081,231.635 372.081,214.773C372.081,197.911 384.811,184.705 401.673,184.705Z" style="fill:rgb(249,53,37);stroke:rgb(249,53,38);stroke-width:0.8px;"/>
            </g>
        </g>
        <g transform="matrix(0.794802,0,0,1.54392,307.778,-524.509)">
            <g id="Name">
                <path d="M118.832,495.44L97.808,495.44L97.808,389.024L111.92,389.024L153.68,449.36L195.008,389.024L209.408,389.024L209.408,495.44L188.096,495.44L188.096,435.104L157.136,479.6L149.792,479.6L118.832,435.104L118.832,495.44Z" style="fill-rule:nonzero;stroke:rgb(1,0,1);stroke-width:2px;stroke-linejoin:round;stroke-miterlimit:2;"/>
                <path d="M289.04,426.32L289.04,416.96L308.336,416.96L308.336,495.44L289.04,495.44L289.04,486.368C282.32,493.664 273.968,497.312 263.984,497.312C252.656,497.312 243.344,493.376 236.048,485.504C228.752,477.632 225.104,467.744 225.104,455.84C225.104,444.032 228.8,434.288 236.192,426.608C243.584,418.832 252.848,414.944 263.984,414.944C273.776,414.944 282.128,418.736 289.04,426.32ZM289.328,456.128C289.328,449.984 287.216,444.656 282.992,440.144C278.864,435.728 273.632,433.52 267.296,433.52C260.864,433.52 255.584,435.728 251.456,440.144C247.424,444.56 245.408,449.888 245.408,456.128C245.408,462.464 247.472,467.84 251.6,472.256C255.728,476.672 260.96,478.88 267.296,478.88C273.632,478.88 278.864,476.672 282.992,472.256C287.216,467.744 289.328,462.368 289.328,456.128Z" style="fill-rule:nonzero;stroke:rgb(1,0,1);stroke-width:2px;stroke-linejoin:round;stroke-miterlimit:2;"/>
                <path d="M376.016,414.944C387.056,414.944 396.272,418.928 403.664,426.896C410.96,434.768 414.608,444.512 414.608,456.128C414.608,467.648 410.912,477.392 403.52,485.36C396.128,493.328 386.912,497.312 375.872,497.312C366.176,497.312 357.968,493.664 351.248,486.368L351.248,527.696L330.944,527.696L330.944,416.96L351.104,416.96L351.104,426.608C357.824,418.832 366.128,414.944 376.016,414.944ZM372.416,478.736C378.848,478.736 384.08,476.576 388.112,472.256C392.144,467.936 394.16,462.608 394.16,456.272C394.16,449.936 392.144,444.608 388.112,440.288C384.08,435.968 378.848,433.808 372.416,433.808C366.08,433.808 360.896,435.968 356.864,440.288C352.832,444.608 350.816,449.936 350.816,456.272C350.816,462.608 352.832,467.936 356.864,472.256C360.896,476.576 366.08,478.736 372.416,478.736Z" style="fill-rule:nonzero;stroke:rgb(1,0,1);stroke-width:2px;stroke-linejoin:round;stroke-miterlimit:2;"/>
                <path d="M167.504,598.284L167.504,532.476L188.528,532.476L188.528,638.892L173.984,638.892L118.832,573.66L118.832,638.892L97.808,638.892L97.808,532.476L111.344,532.476L167.504,598.284Z" style="fill-rule:nonzero;stroke:rgb(1,0,1);stroke-width:2px;stroke-linejoin:round;stroke-miterlimit:2;"/>
                <path d="M204.224,599.58C204.224,587.964 208.16,578.22 216.032,570.348C224,562.284 234.08,558.252 246.272,558.252C258.464,558.252 268.544,562.284 276.512,570.348C284.384,578.22 288.32,587.964 288.32,599.58C288.32,611.292 284.384,621.084 276.512,628.956C268.544,636.924 258.464,640.908 246.272,640.908C234.08,640.908 224,636.924 216.032,628.956C208.16,621.084 204.224,611.292 204.224,599.58ZM230.72,615.564C234.848,619.884 240.032,622.044 246.272,622.044C252.32,622.044 257.456,619.884 261.68,615.564C265.904,611.052 268.016,605.724 268.016,599.58C268.016,593.436 265.904,588.156 261.68,583.74C257.456,579.42 252.32,577.26 246.272,577.26C240.032,577.26 234.848,579.42 230.72,583.74C226.592,587.964 224.528,593.244 224.528,599.58C224.528,605.82 226.592,611.148 230.72,615.564Z" style="fill-rule:nonzero;stroke:rgb(1,0,1);stroke-width:2px;stroke-linejoin:round;stroke-miterlimit:2;"/>
                <path d="M365.504,569.484L365.504,529.452L385.808,529.452L385.808,638.892L365.936,638.892L365.936,629.244C359.6,636.924 351.488,640.764 341.6,640.764C330.368,640.764 321.104,636.876 313.808,629.1C306.416,621.132 302.72,611.292 302.72,599.58C302.72,587.964 306.416,578.172 313.808,570.204C321.296,562.332 330.56,558.396 341.6,558.396C351.008,558.396 358.976,562.092 365.504,569.484ZM366.512,599.58C366.512,593.244 364.496,587.916 360.464,583.596C356.432,579.18 351.2,576.972 344.768,576.972C338.336,576.972 333.056,579.18 328.928,583.596C324.896,587.916 322.88,593.244 322.88,599.58C322.88,606.012 324.896,611.436 328.928,615.852C333.056,620.172 338.336,622.332 344.768,622.332C351.2,622.332 356.432,620.172 360.464,615.852C364.496,611.436 366.512,606.012 366.512,599.58Z" style="fill-rule:nonzero;stroke:rgb(1,0,1);stroke-width:2px;stroke-linejoin:round;stroke-miterlimit:2;"/>
                <path d="M480.416,597.852C480.416,600.252 480.176,603.228 479.696,606.78L420.8,606.78C423.68,617.916 431.312,623.484 443.696,623.484C452.816,623.484 461.264,620.844 469.04,615.564L477.104,629.82C467.12,637.02 455.696,640.62 442.832,640.62C429.104,640.62 418.544,636.636 411.152,628.668C403.856,620.796 400.208,611.1 400.208,599.58C400.208,587.58 404,577.74 411.584,570.06C419.168,562.284 429.008,558.396 441.104,558.396C452.528,558.396 461.936,561.948 469.328,569.052C476.72,576.156 480.416,585.756 480.416,597.852ZM441.104,575.244C436.016,575.244 431.672,576.708 428.072,579.636C424.472,582.564 422.048,586.572 420.8,591.66L460.688,591.66C459.728,586.572 457.52,582.564 454.064,579.636C450.608,576.708 446.288,575.244 441.104,575.244Z" style="fill-rule:nonzero;stroke:rgb(1,0,1);stroke-width:2px;stroke-linejoin:round;stroke-miterlimit:2;"/>
            </g>
        </g>
    </g>
</svg>
